<svg width="98" height="31" viewBox="0 0 98 31" fill="none" xmlns="http://www.w3.org/2000/svg">
<path d="M18.2262 0C11.6518 0 6.28154 5.37032 6.28154 11.9449C6.28154 12.4982 6.34663 13.0515 6.41173 13.6048H4.23109C1.92026 13.6048 0 15.4926 0 17.836V22.7506C0 25.0615 1.88772 26.9818 4.23109 26.9818H4.94712C4.91457 27.5351 4.78438 28.186 4.52401 28.8695C4.29618 29.4879 4.45892 30.1389 4.94712 30.562C5.24004 30.8224 5.59806 30.92 5.92352 30.92C6.1839 30.92 6.44427 30.8549 6.6721 30.7247C8.36454 29.7809 9.7966 28.186 10.773 26.9492H12.498C14.4508 26.9492 16.1107 25.5823 16.5663 23.7596C17.1196 23.8247 17.6729 23.8898 18.2262 23.8898C24.8007 23.8898 30.1709 18.5195 30.1709 11.9449C30.1709 5.37032 24.8332 0 18.2262 0ZM14.939 22.7181C14.939 24.0851 13.8324 25.1917 12.4654 25.1917H10.3499C10.057 25.1917 9.7966 25.3219 9.63386 25.5497C9.01547 26.3959 7.81124 27.8606 6.37918 28.8695C6.70465 27.7304 6.76974 26.754 6.73719 26.0379C6.70465 25.5823 6.31409 25.1917 5.85843 25.1917H4.23109C2.86412 25.1917 1.75753 24.0851 1.75753 22.7181V17.8034C1.75753 16.4364 2.86412 15.3298 4.23109 15.3298H12.498C13.865 15.3298 14.9715 16.4364 14.9715 17.8034V22.7181H14.939ZM18.2262 21.7417C17.7055 21.7417 17.1847 21.6766 16.6965 21.6115V17.8034C16.6965 15.4926 14.8088 13.5723 12.4654 13.5723H9.56877C9.47113 13.377 9.47113 13.1166 9.63386 12.9213L9.7966 12.726C9.92679 12.5633 10.1221 12.4982 10.3173 12.5307L11.3914 12.6935H11.6192L13.0513 12.368C13.0838 12.368 13.1489 12.3355 13.1815 12.3029L14.0602 11.8798C14.223 11.7822 14.3532 11.6194 14.3857 11.4241L14.7437 8.75525C14.7763 8.49487 14.6461 8.23449 14.3857 8.13685L13.9626 7.97411C13.7022 7.87647 13.5395 7.61609 13.6046 7.32316C13.6697 7.06278 13.865 6.8675 14.1253 6.83495L14.7763 6.76986C15.1017 6.73731 15.3296 6.47693 15.297 6.15146L15.2645 5.33777L15.1668 3.7104C15.1668 3.48257 15.0041 3.28729 14.7763 3.18964L14.1904 2.96181C15.4272 2.40851 16.7616 2.08303 18.1937 2.08303C18.9423 2.08303 19.6583 2.14813 20.3418 2.31087L20.4069 3.90569V3.93823L20.2116 5.72834C20.2116 5.79344 20.2116 5.85853 20.2441 5.89108L20.4394 6.184C20.5371 6.31419 20.6998 6.31419 20.83 6.21655L21.3833 5.72834C21.546 5.59815 21.7413 5.66325 21.8064 5.85853L21.8389 5.95617C21.8715 6.05381 21.9691 6.15146 22.0668 6.15146L22.6851 6.184H22.7828L23.3035 5.98872C23.4988 5.92363 23.7266 6.11891 23.6616 6.31419L23.3686 7.22552C23.3361 7.32316 23.2384 7.38826 23.1408 7.42081L22.4573 7.45335H22.3922L21.5135 7.19297H21.3182L20.9276 7.35571C20.8625 7.38826 20.7649 7.38826 20.6998 7.35571L20.179 7.12788C20.1139 7.09533 20.0163 7.09533 19.9187 7.16043L19.2677 7.61609C19.2026 7.68118 19.1375 7.77883 19.1701 7.84392L19.2677 8.62506C19.2677 8.7227 19.2352 8.85289 19.105 8.88544L18.5842 9.11327C18.4215 9.17836 18.389 9.4062 18.5191 9.53639L18.8772 9.89441C18.9423 9.9595 19.0399 9.9595 19.105 9.9595L19.7559 9.79677H19.9187L20.2116 9.92696C20.3092 9.9595 20.5371 10.1548 20.6998 10.285C20.7974 10.3826 20.9927 10.3501 21.0578 10.2199C21.0904 10.1548 21.1554 10.1222 21.2531 10.1222L21.7738 10.0571C21.8389 10.0571 21.8715 10.0246 21.904 9.99205L21.9691 9.9595C22.0993 9.82931 22.3271 9.89441 22.3922 10.0571L22.6526 10.7732C22.6526 10.8057 22.6851 10.8383 22.6851 10.8383L22.9781 11.1963C23.0432 11.2939 23.0432 11.4567 22.9455 11.5543L22.2295 12.2053C22.1318 12.3029 21.9691 12.3029 21.8715 12.2053L21.188 11.5543C21.1554 11.5218 21.1229 11.5218 21.1229 11.4892L20.1465 11.0661C20.1139 11.0661 20.0814 11.0661 20.0814 11.0336L18.8121 10.9034H18.7144L17.2498 11.3265C17.1847 11.359 17.0871 11.4241 17.0871 11.4892L16.5989 12.9864V13.1817L17.3475 14.744C17.38 14.8091 17.4777 14.8742 17.5427 14.9067L18.9748 15.0369C19.0074 15.0369 19.0399 15.0369 19.0724 15.0694L19.6257 15.3949C19.6908 15.4275 19.7559 15.5251 19.7559 15.5902L19.8861 17.0223C19.8861 17.0548 19.8861 17.0874 19.9187 17.1199L20.6021 18.4218C20.6347 18.4544 20.6347 18.4869 20.6672 18.5195L21.4809 19.1053C21.6111 19.1704 21.7738 19.1704 21.8389 19.0402L22.1318 18.6171C22.1318 18.6171 22.1644 18.5846 22.1644 18.552L22.7502 17.1199V17.0548L22.9455 15.0369C22.9455 15.0043 22.9455 14.9718 22.9781 14.9718L23.3686 14.1256C23.4337 14.0279 23.5314 13.9628 23.629 13.9628L25.0285 14.1256C25.0936 14.1256 25.1912 14.1256 25.2563 14.0605L25.5167 13.7675C25.6144 13.6699 25.6144 13.5397 25.5493 13.4421L24.8983 12.5633C24.8007 12.4006 24.8658 12.2053 25.0611 12.1727L25.3214 12.1076C25.354 12.1076 25.7771 12.0751 25.8747 12.0751H25.9073L26.5582 12.2053C26.6884 12.2378 26.786 12.3355 26.786 12.4982L26.6233 14.2558V14.3534L27.1766 15.818C25.6144 19.3657 22.1969 21.7417 18.2262 21.7417Z" fill="#2973B2"/>
<path d="M12.2651 17.6738H5.62559C5.13739 17.6738 4.74683 18.0644 4.74683 18.5526C4.74683 19.0408 5.13739 19.4314 5.62559 19.4314H12.2651C12.7533 19.4314 13.1439 19.0408 13.1439 18.5526C13.1439 18.0644 12.7533 17.6738 12.2651 17.6738ZM12.2651 20.9937H5.62559C5.13739 20.9937 4.74683 21.3842 4.74683 21.8724C4.74683 22.3607 5.13739 22.7512 5.62559 22.7512H12.2651C12.7533 22.7512 13.1439 22.3607 13.1439 21.8724C13.1439 21.3842 12.7533 20.9937 12.2651 20.9937Z" fill="#2973B2"/>
<path d="M46.5462 20.3143C45.5028 20.3143 44.6527 20.0577 43.996 19.5446C43.332 19.0315 43 18.2325 43 17.1476L43.0219 16.8397H44.4119L44.401 17.1586C44.401 17.7817 44.5907 18.2545 44.9701 18.577C45.3568 18.9069 45.8603 19.0718 46.4805 19.0718C47.1883 19.0718 47.7319 18.9179 48.1114 18.61C48.4981 18.3095 48.6914 17.877 48.6914 17.3125C48.6914 16.9314 48.5856 16.6198 48.374 16.3779C48.1624 16.136 47.9034 15.9454 47.5969 15.8062C47.2832 15.6596 46.8563 15.4983 46.3164 15.3224C45.6524 15.1025 45.1161 14.8899 44.7074 14.6846C44.2988 14.4794 43.9486 14.1788 43.6567 13.783C43.3648 13.3872 43.2189 12.8667 43.2189 12.2217C43.2189 11.298 43.529 10.5943 44.1492 10.1105C44.7768 9.62674 45.5794 9.38484 46.5572 9.38484C47.5422 9.38484 48.3376 9.6304 48.9432 10.1215C49.5488 10.6053 49.8516 11.3494 49.8516 12.3536V12.5405H48.4616V12.3096C48.4616 11.7892 48.2865 11.3787 47.9362 11.0781C47.5787 10.7776 47.1299 10.6273 46.59 10.6273C46.0063 10.6273 45.5356 10.7556 45.1781 11.0122C44.8205 11.2614 44.6418 11.6279 44.6418 12.1117C44.6418 12.4709 44.7439 12.7641 44.9482 12.9913C45.1525 13.2259 45.4079 13.4128 45.7144 13.5521C46.0208 13.6914 46.4404 13.8453 46.9731 14.0139C47.6444 14.2411 48.188 14.4537 48.6039 14.6516C49.0198 14.8569 49.3737 15.1574 49.6656 15.5533C49.9574 15.9491 50.1034 16.4586 50.1034 17.0816C50.1034 18.2105 49.7823 19.0315 49.1402 19.5446C48.5054 20.0577 47.6407 20.3143 46.5462 20.3143ZM53.6715 20.3143C53.0294 20.3143 52.5368 20.1237 52.1939 19.7425C51.8509 19.354 51.6795 18.7273 51.6795 17.8623V12.0347H52.9381V17.7743C52.9381 18.2948 53.033 18.6613 53.2227 18.8739C53.4197 19.0865 53.7007 19.1928 54.0655 19.1928C54.4887 19.1928 54.8462 18.9912 55.1381 18.588C55.4227 18.1922 55.565 17.6534 55.565 16.9717V12.0347H56.8237V20.1274H55.8714L55.7073 19.1928H55.6197C55.1965 19.9404 54.5471 20.3143 53.6715 20.3143ZM61.6176 20.3143C61.2528 20.3143 60.9171 20.219 60.6107 20.0284C60.3042 19.8378 60.0525 19.5593 59.8554 19.1928H59.7788L59.6147 20.1274H58.6624V9H59.9211V12.8044H59.9977C60.1291 12.5039 60.348 12.2693 60.6544 12.1007C60.9609 11.9321 61.3148 11.8478 61.7161 11.8478C62.4312 11.8478 63.0113 12.2033 63.4564 12.9144C63.9015 13.6181 64.124 14.67 64.124 16.0701C64.124 17.5068 63.9051 18.5733 63.4673 19.2697C63.0368 19.9661 62.4202 20.3143 61.6176 20.3143ZM61.3659 19.1928C61.8547 19.1928 62.2159 18.9728 62.4494 18.533C62.6829 18.0859 62.7997 17.3675 62.7997 16.3779V15.7842C62.7997 14.7946 62.6829 14.0762 62.4494 13.6291C62.2159 13.1893 61.8547 12.9693 61.3659 12.9693C60.4027 12.9693 59.9211 13.9296 59.9211 15.8501V16.3779C59.9211 18.2545 60.4027 19.1928 61.3659 19.1928ZM68.8961 20.3143C67.86 20.3143 67.0099 20.0577 66.3459 19.5446C65.6892 19.0315 65.3608 18.2325 65.3608 17.1476L65.3718 16.8397H66.7727L66.7509 17.1586C66.7509 17.7817 66.9442 18.2545 67.3309 18.577C67.7104 18.9069 68.2138 19.0718 68.8414 19.0718C69.5418 19.0718 70.0855 18.9179 70.4722 18.61C70.8516 18.3095 71.0413 17.877 71.0413 17.3125C71.0413 16.9314 70.9392 16.6198 70.7349 16.3779C70.5233 16.136 70.2606 15.9454 69.9468 15.8062C69.6404 15.6596 69.2135 15.4983 68.6662 15.3224C68.0022 15.1025 67.4659 14.8899 67.0573 14.6846C66.6487 14.4794 66.3021 14.1788 66.0175 13.783C65.7257 13.3872 65.5797 12.8667 65.5797 12.2217C65.5797 11.298 65.8898 10.5943 66.5101 10.1105C67.1303 9.62674 67.9329 9.38484 68.918 9.38484C69.8957 9.38484 70.6911 9.6304 71.304 10.1215C71.9096 10.6053 72.2125 11.3494 72.2125 12.3536V12.5405H70.8115V12.3096C70.8115 11.7892 70.6364 11.3787 70.2861 11.0781C69.9359 10.7776 69.4908 10.6273 68.9508 10.6273C68.3671 10.6273 67.8964 10.7556 67.5389 11.0122C67.1814 11.2614 67.0026 11.6279 67.0026 12.1117C67.0026 12.4709 67.1047 12.7641 67.3091 12.9913C67.5134 13.2259 67.7687 13.4128 68.0752 13.5521C68.3817 13.6914 68.8012 13.8453 69.3339 14.0139C70.0052 14.2411 70.5488 14.4537 70.9647 14.6516C71.3733 14.8569 71.7236 15.1574 72.0154 15.5533C72.3073 15.9491 72.4532 16.4586 72.4532 17.0816C72.4532 18.2105 72.1358 19.0315 71.501 19.5446C70.8589 20.0577 69.9906 20.3143 68.8961 20.3143ZM74.0293 20.1274V12.0347H74.9816L75.1567 12.9693H75.2442C75.6456 12.2217 76.2585 11.8478 77.083 11.8478C77.9513 11.8478 78.5241 12.2363 78.8014 13.0133C79.0057 12.6395 79.283 12.3499 79.6332 12.1447C79.9835 11.9468 80.3592 11.8478 80.7606 11.8478C82.0302 11.8478 82.665 12.6651 82.665 14.2998V20.1274H81.4063V14.3878C81.4063 13.8673 81.3151 13.5008 81.1327 13.2882C80.943 13.0756 80.6876 12.9693 80.3665 12.9693C79.9725 12.9693 79.6442 13.1709 79.3815 13.5741C79.1188 13.9699 78.9875 14.5087 78.9875 15.1904V20.1274H77.7288V14.3878C77.7288 13.8673 77.6376 13.5008 77.4552 13.2882C77.2654 13.0756 77.0101 12.9693 76.689 12.9693C76.295 12.9693 75.963 13.1709 75.693 13.5741C75.423 13.9699 75.288 14.5087 75.288 15.1904V20.1274H74.0293ZM86.2112 20.3143C85.664 20.3143 85.1751 20.1494 84.7446 19.8195C84.3141 19.4896 84.0988 18.8959 84.0988 18.0382C84.0988 16.9973 84.4491 16.2863 85.1496 15.9051C85.85 15.5166 86.8606 15.3224 88.1813 15.3224V14.2778C88.1813 13.86 88.0865 13.5374 87.8968 13.3102C87.7144 13.083 87.3824 12.9693 86.9008 12.9693C86.463 12.9693 86.1492 13.094 85.9595 13.3432C85.7625 13.5851 85.664 13.8856 85.664 14.2448V14.4317H84.4272C84.4126 14.3731 84.4053 14.2595 84.4053 14.0909C84.4053 13.3725 84.6424 12.8191 85.1167 12.4306C85.5837 12.0421 86.2112 11.8478 86.9993 11.8478C87.8019 11.8478 88.4075 12.0421 88.8162 12.4306C89.2248 12.8191 89.4291 13.3798 89.4291 14.1129V18.654C89.4291 18.8299 89.4729 18.9618 89.5604 19.0498C89.6407 19.1451 89.7428 19.1928 89.8669 19.1928H90.3485V20.0724C90.1296 20.1897 89.8559 20.2483 89.5276 20.2483C89.1992 20.2483 88.9256 20.1603 88.7067 19.9844C88.4878 19.8012 88.3382 19.5556 88.258 19.2477H88.1813C87.977 19.5923 87.7034 19.8561 87.3605 20.0394C87.0175 20.2227 86.6344 20.3143 86.2112 20.3143ZM86.5067 19.1928C86.784 19.1928 87.0503 19.1158 87.3057 18.9618C87.5611 18.8079 87.7691 18.5807 87.9296 18.2801C88.0974 17.9723 88.1813 17.6094 88.1813 17.1916V16.4549C87.262 16.4549 86.5724 16.5575 86.1127 16.7628C85.653 16.9753 85.4232 17.3748 85.4232 17.9613C85.4232 18.4011 85.5107 18.7163 85.6859 18.9069C85.8683 19.0975 86.1419 19.1928 86.5067 19.1928ZM91.4868 20.1274V12.0347H92.439L92.6032 13.0903H92.7017C92.8111 12.7311 92.9789 12.4342 93.2051 12.1997C93.4313 11.9651 93.7159 11.8478 94.0589 11.8478C94.2048 11.8478 94.3325 11.8661 94.4419 11.9028C94.5587 11.9394 94.6316 11.9614 94.6608 11.9688V13.2772H94.2449C93.8071 13.2772 93.4459 13.4275 93.1614 13.728C92.8841 14.0359 92.7454 14.5234 92.7454 15.1904V20.1274H91.4868ZM97.0906 20.2813C96.5799 20.2813 96.215 20.1054 95.9961 19.7535C95.7699 19.4017 95.6568 18.9582 95.6568 18.4231V13.1563H94.9673V12.0347H95.6568L95.9305 9.78067H96.9155V12.0347H97.9991V13.1563H96.9155V18.4561C96.9155 18.9472 97.1527 19.1928 97.627 19.1928H97.9991V20.0724C97.8896 20.131 97.751 20.1823 97.5832 20.2263C97.4081 20.263 97.2439 20.2813 97.0906 20.2813Z" fill="#2973B2"/>
</svg>
